<svg xmlns="http://www.w3.org/2000/svg" xmlns:xlink="http://www.w3.org/1999/xlink" contentStyleType="text/css" data-diagram-type="SEQUENCE" height="461px" preserveAspectRatio="none" style="width:511px;height:461px;background:#FFFFFF;" version="1.1" viewBox="0 0 511 461" width="511px" zoomAndPan="magnify"><defs/><g><rect fill="none" height="177.6016" style="stroke:#000000;stroke-width:1.5;" width="494.3135" x="10" y="185.6953"/><g><title>User</title><rect fill="#000000" fill-opacity="0.00000" height="299" width="8" x="34.9551" y="81.2969"/><line style="stroke:#181818;stroke-width:0.5;stroke-dasharray:5,5;" x1="38" x2="38" y1="81.2969" y2="380.2969"/></g><g><title>User API</title><rect fill="#000000" fill-opacity="0.00000" height="299" width="8" x="188.7583" y="81.2969"/><line style="stroke:#181818;stroke-width:0.5;stroke-dasharray:5,5;" x1="192.5039" x2="192.5039" y1="81.2969" y2="380.2969"/></g><g><title>User Service</title><rect fill="#000000" fill-opacity="0.00000" height="299" width="8" x="323.3662" y="81.2969"/><line style="stroke:#181818;stroke-width:0.5;stroke-dasharray:5,5;" x1="327.3154" x2="327.3154" y1="81.2969" y2="380.2969"/></g><g><title>DB</title><rect fill="#000000" fill-opacity="0.00000" height="299" width="8" x="472.3135" y="81.2969"/><line style="stroke:#181818;stroke-width:0.5;stroke-dasharray:5,5;" x1="476.3135" x2="476.3135" y1="81.2969" y2="380.2969"/></g><g class="participant participant-head" data-participant="User"><text fill="#000000" font-family="sans-serif" font-size="14" lengthAdjust="spacing" textLength="31.9102" x="20" y="77.9951">User</text><ellipse cx="38.9551" cy="13.5" fill="#E2E2F0" rx="8" ry="8" style="stroke:#181818;stroke-width:0.5;"/><path d="M38.9551,21.5 L38.9551,48.5 M25.9551,29.5 L51.9551,29.5 M38.9551,48.5 L25.9551,63.5 M38.9551,48.5 L51.9551,63.5" fill="none" style="stroke:#181818;stroke-width:0.5;"/></g><g class="participant participant-tail" data-participant="User"><text fill="#000000" font-family="sans-serif" font-size="14" lengthAdjust="spacing" textLength="31.9102" x="20" y="392.292">User</text><ellipse cx="38.9551" cy="404.0938" fill="#E2E2F0" rx="8" ry="8" style="stroke:#181818;stroke-width:0.5;"/><path d="M38.9551,412.0938 L38.9551,439.0938 M25.9551,420.0938 L51.9551,420.0938 M38.9551,439.0938 L25.9551,454.0938 M38.9551,439.0938 L51.9551,454.0938" fill="none" style="stroke:#181818;stroke-width:0.5;"/></g><g class="participant participant-head" data-participant="API"><rect fill="#E2E2F0" height="30.2969" rx="2.5" ry="2.5" style="stroke:#181818;stroke-width:0.5;" width="72.5088" x="156.5039" y="50"/><text fill="#000000" font-family="sans-serif" font-size="14" lengthAdjust="spacing" textLength="58.5088" x="163.5039" y="69.9951">User API</text></g><g class="participant participant-tail" data-participant="API"><rect fill="#E2E2F0" height="30.2969" rx="2.5" ry="2.5" style="stroke:#181818;stroke-width:0.5;" width="72.5088" x="156.5039" y="379.2969"/><text fill="#000000" font-family="sans-serif" font-size="14" lengthAdjust="spacing" textLength="58.5088" x="163.5039" y="399.292">User API</text></g><g class="participant participant-head" data-participant="Service"><rect fill="#E2E2F0" height="30.2969" rx="2.5" ry="2.5" style="stroke:#181818;stroke-width:0.5;" width="102.1016" x="276.3154" y="50"/><text fill="#000000" font-family="sans-serif" font-size="14" lengthAdjust="spacing" textLength="88.1016" x="283.3154" y="69.9951">User Service</text></g><g class="participant participant-tail" data-participant="Service"><rect fill="#E2E2F0" height="30.2969" rx="2.5" ry="2.5" style="stroke:#181818;stroke-width:0.5;" width="102.1016" x="276.3154" y="379.2969"/><text fill="#000000" font-family="sans-serif" font-size="14" lengthAdjust="spacing" textLength="88.1016" x="283.3154" y="399.292">User Service</text></g><g class="participant participant-head" data-participant="DB"><text fill="#000000" font-family="sans-serif" font-size="14" lengthAdjust="spacing" textLength="20.3848" x="463.1211" y="77.9951">DB</text><path d="M458.3135,29 C458.3135,19 476.3135,19 476.3135,19 C476.3135,19 494.3135,19 494.3135,29 L494.3135,55 C494.3135,65 476.3135,65 476.3135,65 C476.3135,65 458.3135,65 458.3135,55 L458.3135,29" fill="#E2E2F0" style="stroke:#181818;stroke-width:0.5;"/><path d="M458.3135,29 C458.3135,39 476.3135,39 476.3135,39 C476.3135,39 494.3135,39 494.3135,29" fill="none" style="stroke:#181818;stroke-width:0.5;"/></g><g class="participant participant-tail" data-participant="DB"><text fill="#000000" font-family="sans-serif" font-size="14" lengthAdjust="spacing" textLength="20.3848" x="463.1211" y="392.292">DB</text><path d="M458.3135,405.5938 C458.3135,395.5938 476.3135,395.5938 476.3135,395.5938 C476.3135,395.5938 494.3135,395.5938 494.3135,405.5938 L494.3135,431.5938 C494.3135,441.5938 476.3135,441.5938 476.3135,441.5938 C476.3135,441.5938 458.3135,441.5938 458.3135,431.5938 L458.3135,405.5938" fill="#E2E2F0" style="stroke:#181818;stroke-width:0.5;"/><path d="M458.3135,405.5938 C458.3135,415.5938 476.3135,415.5938 476.3135,415.5938 C476.3135,415.5938 494.3135,415.5938 494.3135,405.5938" fill="none" style="stroke:#181818;stroke-width:0.5;"/></g><g class="message" data-participant-1="User" data-participant-2="API"><polygon fill="#181818" points="180.7583,108.4297,190.7583,112.4297,180.7583,116.4297,184.7583,112.4297" style="stroke:#181818;stroke-width:1;"/><line style="stroke:#181818;stroke-width:1;" x1="38.9551" x2="186.7583" y1="112.4297" y2="112.4297"/><text fill="#000000" font-family="sans-serif" font-size="13" lengthAdjust="spacing" textLength="129.8032" x="45.9551" y="107.3638">Create user request</text></g><g class="message" data-participant-1="API" data-participant-2="Service"><polygon fill="#181818" points="315.3662,137.5625,325.3662,141.5625,315.3662,145.5625,319.3662,141.5625" style="stroke:#181818;stroke-width:1;"/><line style="stroke:#181818;stroke-width:1;" x1="192.7583" x2="321.3662" y1="141.5625" y2="141.5625"/><text fill="#000000" font-family="sans-serif" font-size="13" lengthAdjust="spacing" textLength="110.6079" x="199.7583" y="136.4966">createUser(data)</text></g><g class="message" data-participant-1="Service" data-participant-2="DB"><polygon fill="#181818" points="464.3135,166.6953,474.3135,170.6953,464.3135,174.6953,468.3135,170.6953" style="stroke:#181818;stroke-width:1;"/><line style="stroke:#181818;stroke-width:1;" x1="327.3662" x2="470.3135" y1="170.6953" y2="170.6953"/><text fill="#000000" font-family="sans-serif" font-size="13" lengthAdjust="spacing" textLength="124.9473" x="334.3662" y="165.6294">check if user exists</text></g><path d="M10,185.6953 L74.4429,185.6953 L74.4429,192.8281 L64.4429,202.8281 L10,202.8281 L10,185.6953" fill="#EEEEEE" style="stroke:#000000;stroke-width:1.5;"/><rect fill="none" height="177.6016" style="stroke:#000000;stroke-width:1.5;" width="494.3135" x="10" y="185.6953"/><text fill="#000000" font-family="sans-serif" font-size="13" font-weight="bold" lengthAdjust="spacing" textLength="19.4429" x="25" y="198.7622">alt</text><text fill="#000000" font-family="sans-serif" font-size="11" font-weight="bold" lengthAdjust="spacing" textLength="130.1255" x="89.4429" y="197.9058">[User does not exist]</text><g class="message" data-participant-1="Service" data-participant-2="DB"><polygon fill="#181818" points="464.3135,219.9609,474.3135,223.9609,464.3135,227.9609,468.3135,223.9609" style="stroke:#181818;stroke-width:1;"/><line style="stroke:#181818;stroke-width:1;" x1="327.3662" x2="470.3135" y1="223.9609" y2="223.9609"/><text fill="#000000" font-family="sans-serif" font-size="13" lengthAdjust="spacing" textLength="62.918" x="334.3662" y="218.895">save user</text></g><g class="message" data-participant-1="Service" data-participant-2="API"><polygon fill="#181818" points="203.7583,249.0938,193.7583,253.0938,203.7583,257.0938,199.7583,253.0938" style="stroke:#181818;stroke-width:1;"/><line style="stroke:#181818;stroke-width:1;stroke-dasharray:2,2;" x1="197.7583" x2="326.3662" y1="253.0938" y2="253.0938"/><text fill="#000000" font-family="sans-serif" font-size="13" lengthAdjust="spacing" textLength="50.8511" x="209.7583" y="248.0278">success</text></g><g class="message" data-participant-1="API" data-participant-2="User"><polygon fill="#181818" points="49.9551,278.2266,39.9551,282.2266,49.9551,286.2266,45.9551,282.2266" style="stroke:#181818;stroke-width:1;"/><line style="stroke:#181818;stroke-width:1;stroke-dasharray:2,2;" x1="43.9551" x2="191.7583" y1="282.2266" y2="282.2266"/><text fill="#000000" font-family="sans-serif" font-size="13" lengthAdjust="spacing" textLength="80.6787" x="55.9551" y="277.1606">201 Created</text></g><line style="stroke:#000000;stroke-width:1;stroke-dasharray:2,2;" x1="10" x2="504.3135" y1="291.2266" y2="291.2266"/><text fill="#000000" font-family="sans-serif" font-size="11" font-weight="bold" lengthAdjust="spacing" textLength="129.3037" x="15" y="301.437">[User already exists]</text><g class="message" data-participant-1="Service" data-participant-2="API"><polygon fill="#181818" points="203.7583,322.1641,193.7583,326.1641,203.7583,330.1641,199.7583,326.1641" style="stroke:#181818;stroke-width:1;"/><line style="stroke:#181818;stroke-width:1;stroke-dasharray:2,2;" x1="197.7583" x2="326.3662" y1="326.1641" y2="326.1641"/><text fill="#000000" font-family="sans-serif" font-size="13" lengthAdjust="spacing" textLength="31.9858" x="209.7583" y="321.0981">error</text></g><g class="message" data-participant-1="API" data-participant-2="User"><polygon fill="#181818" points="49.9551,351.2969,39.9551,355.2969,49.9551,359.2969,45.9551,355.2969" style="stroke:#181818;stroke-width:1;"/><line style="stroke:#181818;stroke-width:1;stroke-dasharray:2,2;" x1="43.9551" x2="191.7583" y1="355.2969" y2="355.2969"/><text fill="#000000" font-family="sans-serif" font-size="13" lengthAdjust="spacing" textLength="111.6045" x="55.9551" y="350.231">400 Bad Request</text></g><!--SRC=[RP11QyCm38Nl-XMYf_KmICTEEHIMzjBRsDWFK6sDcOOubPIm_VlPJb9eYIysxtjwF9cSHS4lPO6Un88BFNM6cwpWs_jfWwJvNg6VB6DmN1pp6pmPdKaPZmr0SJtlypZMU10cOnooA7mTM0qoIOPvEfbSCUN1fnor1LXOiXsRxFXXTy7mFGNnRr1J06gjB84-ic8NRIA0wJmcA8rJZNjwAwg3SwnQQ2cOICckyQNQpNjuu3QjMNHga-J_bZBhgImIPItpjQgm8OyVyvzmv_y1]--></g></svg>