<svg xmlns="http://www.w3.org/2000/svg" xmlns:xlink="http://www.w3.org/1999/xlink" contentStyleType="text/css" data-diagram-type="SEQUENCE" height="461px" preserveAspectRatio="none" style="width:460px;height:461px;background:#FFFFFF;" version="1.1" viewBox="0 0 460 461" width="460px" zoomAndPan="magnify"><defs/><g><rect fill="none" height="177.6016" style="stroke:#000000;stroke-width:1.5;" width="443.8242" x="10" y="185.6953"/><g><title>User</title><rect fill="#000000" fill-opacity="0.00000" height="299" width="8" x="34.9551" y="81.2969"/><line style="stroke:#181818;stroke-width:0.5;stroke-dasharray:5,5;" x1="38" x2="38" y1="81.2969" y2="380.2969"/></g><g><title>User API</title><rect fill="#000000" fill-opacity="0.00000" height="299" width="8" x="187.9902" y="81.2969"/><line style="stroke:#181818;stroke-width:0.5;stroke-dasharray:5,5;" x1="191.7358" x2="191.7358" y1="81.2969" y2="380.2969"/></g><g><title>User Service</title><rect fill="#000000" fill-opacity="0.00000" height="299" width="8" x="304.5835" y="81.2969"/><line style="stroke:#181818;stroke-width:0.5;stroke-dasharray:5,5;" x1="308.5327" x2="308.5327" y1="81.2969" y2="380.2969"/></g><g><title>DB</title><rect fill="#000000" fill-opacity="0.00000" height="299" width="8" x="421.8242" y="81.2969"/><line style="stroke:#181818;stroke-width:0.5;stroke-dasharray:5,5;" x1="425.8242" x2="425.8242" y1="81.2969" y2="380.2969"/></g><g class="participant participant-head" data-participant="User"><text fill="#000000" font-family="sans-serif" font-size="14" lengthAdjust="spacing" textLength="31.9102" x="20" y="77.9951">User</text><ellipse cx="38.9551" cy="13.5" fill="#E2E2F0" rx="8" ry="8" style="stroke:#181818;stroke-width:0.5;"/><path d="M38.9551,21.5 L38.9551,48.5 M25.9551,29.5 L51.9551,29.5 M38.9551,48.5 L25.9551,63.5 M38.9551,48.5 L51.9551,63.5" fill="none" style="stroke:#181818;stroke-width:0.5;"/></g><g class="participant participant-tail" data-participant="User"><text fill="#000000" font-family="sans-serif" font-size="14" lengthAdjust="spacing" textLength="31.9102" x="20" y="392.292">User</text><ellipse cx="38.9551" cy="404.0938" fill="#E2E2F0" rx="8" ry="8" style="stroke:#181818;stroke-width:0.5;"/><path d="M38.9551,412.0938 L38.9551,439.0938 M25.9551,420.0938 L51.9551,420.0938 M38.9551,439.0938 L25.9551,454.0938 M38.9551,439.0938 L51.9551,454.0938" fill="none" style="stroke:#181818;stroke-width:0.5;"/></g><g class="participant participant-head" data-participant="API"><rect fill="#E2E2F0" height="30.2969" rx="2.5" ry="2.5" style="stroke:#181818;stroke-width:0.5;" width="72.5088" x="155.7358" y="50"/><text fill="#000000" font-family="sans-serif" font-size="14" lengthAdjust="spacing" textLength="58.5088" x="162.7358" y="69.9951">User API</text></g><g class="participant participant-tail" data-participant="API"><rect fill="#E2E2F0" height="30.2969" rx="2.5" ry="2.5" style="stroke:#181818;stroke-width:0.5;" width="72.5088" x="155.7358" y="379.2969"/><text fill="#000000" font-family="sans-serif" font-size="14" lengthAdjust="spacing" textLength="58.5088" x="162.7358" y="399.292">User API</text></g><g class="participant participant-head" data-participant="Service"><rect fill="#E2E2F0" height="30.2969" rx="2.5" ry="2.5" style="stroke:#181818;stroke-width:0.5;" width="102.1016" x="257.5327" y="50"/><text fill="#000000" font-family="sans-serif" font-size="14" lengthAdjust="spacing" textLength="88.1016" x="264.5327" y="69.9951">User Service</text></g><g class="participant participant-tail" data-participant="Service"><rect fill="#E2E2F0" height="30.2969" rx="2.5" ry="2.5" style="stroke:#181818;stroke-width:0.5;" width="102.1016" x="257.5327" y="379.2969"/><text fill="#000000" font-family="sans-serif" font-size="14" lengthAdjust="spacing" textLength="88.1016" x="264.5327" y="399.292">User Service</text></g><g class="participant participant-head" data-participant="DB"><text fill="#000000" font-family="sans-serif" font-size="14" lengthAdjust="spacing" textLength="20.3848" x="412.6318" y="77.9951">DB</text><path d="M407.8242,29 C407.8242,19 425.8242,19 425.8242,19 C425.8242,19 443.8242,19 443.8242,29 L443.8242,55 C443.8242,65 425.8242,65 425.8242,65 C425.8242,65 407.8242,65 407.8242,55 L407.8242,29" fill="#E2E2F0" style="stroke:#181818;stroke-width:0.5;"/><path d="M407.8242,29 C407.8242,39 425.8242,39 425.8242,39 C425.8242,39 443.8242,39 443.8242,29" fill="none" style="stroke:#181818;stroke-width:0.5;"/></g><g class="participant participant-tail" data-participant="DB"><text fill="#000000" font-family="sans-serif" font-size="14" lengthAdjust="spacing" textLength="20.3848" x="412.6318" y="392.292">DB</text><path d="M407.8242,405.5938 C407.8242,395.5938 425.8242,395.5938 425.8242,395.5938 C425.8242,395.5938 443.8242,395.5938 443.8242,405.5938 L443.8242,431.5938 C443.8242,441.5938 425.8242,441.5938 425.8242,441.5938 C425.8242,441.5938 407.8242,441.5938 407.8242,431.5938 L407.8242,405.5938" fill="#E2E2F0" style="stroke:#181818;stroke-width:0.5;"/><path d="M407.8242,405.5938 C407.8242,415.5938 425.8242,415.5938 425.8242,415.5938 C425.8242,415.5938 443.8242,415.5938 443.8242,405.5938" fill="none" style="stroke:#181818;stroke-width:0.5;"/></g><g class="message" data-participant-1="User" data-participant-2="API"><polygon fill="#181818" points="179.9902,108.4297,189.9902,112.4297,179.9902,116.4297,183.9902,112.4297" style="stroke:#181818;stroke-width:1;"/><line style="stroke:#181818;stroke-width:1;" x1="38.9551" x2="185.9902" y1="112.4297" y2="112.4297"/><text fill="#000000" font-family="sans-serif" font-size="13" lengthAdjust="spacing" textLength="129.0352" x="45.9551" y="107.3638">Delete user request</text></g><g class="message" data-participant-1="API" data-participant-2="Service"><polygon fill="#181818" points="296.5835,137.5625,306.5835,141.5625,296.5835,145.5625,300.5835,141.5625" style="stroke:#181818;stroke-width:1;"/><line style="stroke:#181818;stroke-width:1;" x1="191.9902" x2="302.5835" y1="141.5625" y2="141.5625"/><text fill="#000000" font-family="sans-serif" font-size="13" lengthAdjust="spacing" textLength="92.5933" x="198.9902" y="136.4966">deleteUser(id)</text></g><g class="message" data-participant-1="Service" data-participant-2="DB"><polygon fill="#181818" points="413.8242,166.6953,423.8242,170.6953,413.8242,174.6953,417.8242,170.6953" style="stroke:#181818;stroke-width:1;"/><line style="stroke:#181818;stroke-width:1;" x1="308.5835" x2="419.8242" y1="170.6953" y2="170.6953"/><text fill="#000000" font-family="sans-serif" font-size="13" lengthAdjust="spacing" textLength="93.2407" x="315.5835" y="165.6294">find user by id</text></g><path d="M10,185.6953 L74.4429,185.6953 L74.4429,192.8281 L64.4429,202.8281 L10,202.8281 L10,185.6953" fill="#EEEEEE" style="stroke:#000000;stroke-width:1.5;"/><rect fill="none" height="177.6016" style="stroke:#000000;stroke-width:1.5;" width="443.8242" x="10" y="185.6953"/><text fill="#000000" font-family="sans-serif" font-size="13" font-weight="bold" lengthAdjust="spacing" textLength="19.4429" x="25" y="198.7622">alt</text><text fill="#000000" font-family="sans-serif" font-size="11" font-weight="bold" lengthAdjust="spacing" textLength="78.9282" x="89.4429" y="197.9058">[User exists]</text><g class="message" data-participant-1="Service" data-participant-2="DB"><polygon fill="#181818" points="413.8242,219.9609,423.8242,223.9609,413.8242,227.9609,417.8242,223.9609" style="stroke:#181818;stroke-width:1;"/><line style="stroke:#181818;stroke-width:1;" x1="308.5835" x2="419.8242" y1="223.9609" y2="223.9609"/><text fill="#000000" font-family="sans-serif" font-size="13" lengthAdjust="spacing" textLength="73.4424" x="315.5835" y="218.895">delete user</text></g><g class="message" data-participant-1="Service" data-participant-2="API"><polygon fill="#181818" points="202.9902,249.0938,192.9902,253.0938,202.9902,257.0938,198.9902,253.0938" style="stroke:#181818;stroke-width:1;"/><line style="stroke:#181818;stroke-width:1;stroke-dasharray:2,2;" x1="196.9902" x2="307.5835" y1="253.0938" y2="253.0938"/><text fill="#000000" font-family="sans-serif" font-size="13" lengthAdjust="spacing" textLength="50.8511" x="208.9902" y="248.0278">success</text></g><g class="message" data-participant-1="API" data-participant-2="User"><polygon fill="#181818" points="49.9551,278.2266,39.9551,282.2266,49.9551,286.2266,45.9551,282.2266" style="stroke:#181818;stroke-width:1;"/><line style="stroke:#181818;stroke-width:1;stroke-dasharray:2,2;" x1="43.9551" x2="190.9902" y1="282.2266" y2="282.2266"/><text fill="#000000" font-family="sans-serif" font-size="13" lengthAdjust="spacing" textLength="102.4575" x="55.9551" y="277.1606">204 No Content</text></g><line style="stroke:#000000;stroke-width:1;stroke-dasharray:2,2;" x1="10" x2="453.8242" y1="291.2266" y2="291.2266"/><text fill="#000000" font-family="sans-serif" font-size="11" font-weight="bold" lengthAdjust="spacing" textLength="102.604" x="15" y="301.437">[User not found]</text><g class="message" data-participant-1="Service" data-participant-2="API"><polygon fill="#181818" points="202.9902,322.1641,192.9902,326.1641,202.9902,330.1641,198.9902,326.1641" style="stroke:#181818;stroke-width:1;"/><line style="stroke:#181818;stroke-width:1;stroke-dasharray:2,2;" x1="196.9902" x2="307.5835" y1="326.1641" y2="326.1641"/><text fill="#000000" font-family="sans-serif" font-size="13" lengthAdjust="spacing" textLength="31.9858" x="208.9902" y="321.0981">error</text></g><g class="message" data-participant-1="API" data-participant-2="User"><polygon fill="#181818" points="49.9551,351.2969,39.9551,355.2969,49.9551,359.2969,45.9551,355.2969" style="stroke:#181818;stroke-width:1;"/><line style="stroke:#181818;stroke-width:1;stroke-dasharray:2,2;" x1="43.9551" x2="190.9902" y1="355.2969" y2="355.2969"/><text fill="#000000" font-family="sans-serif" font-size="13" lengthAdjust="spacing" textLength="96.0146" x="55.9551" y="350.231">404 Not Found</text></g><!--SRC=[TO_12i8m44Jl-nMB9pq88Ztr8AX5y2A2-05fiaAW93NPYlwzoROgIiqbOT_Cx4HfzW7FaGAqAh3LjbMESP8dk3xk9wXYlaVeYSBDQXB5y0QZMDKg4bOR057DLzcE9LRK41DsUHZesb5ao2G91dSI6H5buzIQ6S2B956rIVnYdUaZwWTQ0w0QblP8Tniv0gRpQpAVpT_ytIrsMbFitT8f4KajSRaeyE1nwnsJOw0cVKwGyumNtpdp9vD2y64iiP14nfsOoPad]--></g></svg>