<svg xmlns="http://www.w3.org/2000/svg" xmlns:xlink="http://www.w3.org/1999/xlink" contentStyleType="text/css" data-diagram-type="SEQUENCE" height="461px" preserveAspectRatio="none" style="width:487px;height:461px;background:#FFFFFF;" version="1.1" viewBox="0 0 487 461" width="487px" zoomAndPan="magnify"><defs/><g><rect fill="none" height="177.6016" style="stroke:#000000;stroke-width:1.5;" width="470.459" x="10" y="185.6953"/><g><title>User</title><rect fill="#000000" fill-opacity="0.00000" height="299" width="8" x="34.9551" y="81.2969"/><line style="stroke:#181818;stroke-width:0.5;stroke-dasharray:5,5;" x1="38" x2="38" y1="81.2969" y2="380.2969"/></g><g><title>User API</title><rect fill="#000000" fill-opacity="0.00000" height="299" width="8" x="192.3574" y="81.2969"/><line style="stroke:#181818;stroke-width:0.5;stroke-dasharray:5,5;" x1="196.103" x2="196.103" y1="81.2969" y2="380.2969"/></g><g><title>User Service</title><rect fill="#000000" fill-opacity="0.00000" height="299" width="8" x="331.2183" y="81.2969"/><line style="stroke:#181818;stroke-width:0.5;stroke-dasharray:5,5;" x1="335.1675" x2="335.1675" y1="81.2969" y2="380.2969"/></g><g><title>DB</title><rect fill="#000000" fill-opacity="0.00000" height="299" width="8" x="448.459" y="81.2969"/><line style="stroke:#181818;stroke-width:0.5;stroke-dasharray:5,5;" x1="452.459" x2="452.459" y1="81.2969" y2="380.2969"/></g><g class="participant participant-head" data-participant="User"><text fill="#000000" font-family="sans-serif" font-size="14" lengthAdjust="spacing" textLength="31.9102" x="20" y="77.9951">User</text><ellipse cx="38.9551" cy="13.5" fill="#E2E2F0" rx="8" ry="8" style="stroke:#181818;stroke-width:0.5;"/><path d="M38.9551,21.5 L38.9551,48.5 M25.9551,29.5 L51.9551,29.5 M38.9551,48.5 L25.9551,63.5 M38.9551,48.5 L51.9551,63.5" fill="none" style="stroke:#181818;stroke-width:0.5;"/></g><g class="participant participant-tail" data-participant="User"><text fill="#000000" font-family="sans-serif" font-size="14" lengthAdjust="spacing" textLength="31.9102" x="20" y="392.292">User</text><ellipse cx="38.9551" cy="404.0938" fill="#E2E2F0" rx="8" ry="8" style="stroke:#181818;stroke-width:0.5;"/><path d="M38.9551,412.0938 L38.9551,439.0938 M25.9551,420.0938 L51.9551,420.0938 M38.9551,439.0938 L25.9551,454.0938 M38.9551,439.0938 L51.9551,454.0938" fill="none" style="stroke:#181818;stroke-width:0.5;"/></g><g class="participant participant-head" data-participant="API"><rect fill="#E2E2F0" height="30.2969" rx="2.5" ry="2.5" style="stroke:#181818;stroke-width:0.5;" width="72.5088" x="160.103" y="50"/><text fill="#000000" font-family="sans-serif" font-size="14" lengthAdjust="spacing" textLength="58.5088" x="167.103" y="69.9951">User API</text></g><g class="participant participant-tail" data-participant="API"><rect fill="#E2E2F0" height="30.2969" rx="2.5" ry="2.5" style="stroke:#181818;stroke-width:0.5;" width="72.5088" x="160.103" y="379.2969"/><text fill="#000000" font-family="sans-serif" font-size="14" lengthAdjust="spacing" textLength="58.5088" x="167.103" y="399.292">User API</text></g><g class="participant participant-head" data-participant="Service"><rect fill="#E2E2F0" height="30.2969" rx="2.5" ry="2.5" style="stroke:#181818;stroke-width:0.5;" width="102.1016" x="284.1675" y="50"/><text fill="#000000" font-family="sans-serif" font-size="14" lengthAdjust="spacing" textLength="88.1016" x="291.1675" y="69.9951">User Service</text></g><g class="participant participant-tail" data-participant="Service"><rect fill="#E2E2F0" height="30.2969" rx="2.5" ry="2.5" style="stroke:#181818;stroke-width:0.5;" width="102.1016" x="284.1675" y="379.2969"/><text fill="#000000" font-family="sans-serif" font-size="14" lengthAdjust="spacing" textLength="88.1016" x="291.1675" y="399.292">User Service</text></g><g class="participant participant-head" data-participant="DB"><text fill="#000000" font-family="sans-serif" font-size="14" lengthAdjust="spacing" textLength="20.3848" x="439.2666" y="77.9951">DB</text><path d="M434.459,29 C434.459,19 452.459,19 452.459,19 C452.459,19 470.459,19 470.459,29 L470.459,55 C470.459,65 452.459,65 452.459,65 C452.459,65 434.459,65 434.459,55 L434.459,29" fill="#E2E2F0" style="stroke:#181818;stroke-width:0.5;"/><path d="M434.459,29 C434.459,39 452.459,39 452.459,39 C452.459,39 470.459,39 470.459,29" fill="none" style="stroke:#181818;stroke-width:0.5;"/></g><g class="participant participant-tail" data-participant="DB"><text fill="#000000" font-family="sans-serif" font-size="14" lengthAdjust="spacing" textLength="20.3848" x="439.2666" y="392.292">DB</text><path d="M434.459,405.5938 C434.459,395.5938 452.459,395.5938 452.459,395.5938 C452.459,395.5938 470.459,395.5938 470.459,405.5938 L470.459,431.5938 C470.459,441.5938 452.459,441.5938 452.459,441.5938 C452.459,441.5938 434.459,441.5938 434.459,431.5938 L434.459,405.5938" fill="#E2E2F0" style="stroke:#181818;stroke-width:0.5;"/><path d="M434.459,405.5938 C434.459,415.5938 452.459,415.5938 452.459,415.5938 C452.459,415.5938 470.459,415.5938 470.459,405.5938" fill="none" style="stroke:#181818;stroke-width:0.5;"/></g><g class="message" data-participant-1="User" data-participant-2="API"><polygon fill="#181818" points="184.3574,108.4297,194.3574,112.4297,184.3574,116.4297,188.3574,112.4297" style="stroke:#181818;stroke-width:1;"/><line style="stroke:#181818;stroke-width:1;" x1="38.9551" x2="190.3574" y1="112.4297" y2="112.4297"/><text fill="#000000" font-family="sans-serif" font-size="13" lengthAdjust="spacing" textLength="133.4023" x="45.9551" y="107.3638">Update user request</text></g><g class="message" data-participant-1="API" data-participant-2="Service"><polygon fill="#181818" points="323.2183,137.5625,333.2183,141.5625,323.2183,145.5625,327.2183,141.5625" style="stroke:#181818;stroke-width:1;"/><line style="stroke:#181818;stroke-width:1;" x1="196.3574" x2="329.2183" y1="141.5625" y2="141.5625"/><text fill="#000000" font-family="sans-serif" font-size="13" lengthAdjust="spacing" textLength="114.8608" x="203.3574" y="136.4966">updateUser(data)</text></g><g class="message" data-participant-1="Service" data-participant-2="DB"><polygon fill="#181818" points="440.459,166.6953,450.459,170.6953,440.459,174.6953,444.459,170.6953" style="stroke:#181818;stroke-width:1;"/><line style="stroke:#181818;stroke-width:1;" x1="335.2183" x2="446.459" y1="170.6953" y2="170.6953"/><text fill="#000000" font-family="sans-serif" font-size="13" lengthAdjust="spacing" textLength="93.2407" x="342.2183" y="165.6294">find user by id</text></g><path d="M10,185.6953 L74.4429,185.6953 L74.4429,192.8281 L64.4429,202.8281 L10,202.8281 L10,185.6953" fill="#EEEEEE" style="stroke:#000000;stroke-width:1.5;"/><rect fill="none" height="177.6016" style="stroke:#000000;stroke-width:1.5;" width="470.459" x="10" y="185.6953"/><text fill="#000000" font-family="sans-serif" font-size="13" font-weight="bold" lengthAdjust="spacing" textLength="19.4429" x="25" y="198.7622">alt</text><text fill="#000000" font-family="sans-serif" font-size="11" font-weight="bold" lengthAdjust="spacing" textLength="78.9282" x="89.4429" y="197.9058">[User exists]</text><g class="message" data-participant-1="Service" data-participant-2="DB"><polygon fill="#181818" points="440.459,219.9609,450.459,223.9609,440.459,227.9609,444.459,223.9609" style="stroke:#181818;stroke-width:1;"/><line style="stroke:#181818;stroke-width:1;" x1="335.2183" x2="446.459" y1="223.9609" y2="223.9609"/><text fill="#000000" font-family="sans-serif" font-size="13" lengthAdjust="spacing" textLength="78.292" x="342.2183" y="218.895">update user</text></g><g class="message" data-participant-1="Service" data-participant-2="API"><polygon fill="#181818" points="207.3574,249.0938,197.3574,253.0938,207.3574,257.0938,203.3574,253.0938" style="stroke:#181818;stroke-width:1;"/><line style="stroke:#181818;stroke-width:1;stroke-dasharray:2,2;" x1="201.3574" x2="334.2183" y1="253.0938" y2="253.0938"/><text fill="#000000" font-family="sans-serif" font-size="13" lengthAdjust="spacing" textLength="50.8511" x="213.3574" y="248.0278">success</text></g><g class="message" data-participant-1="API" data-participant-2="User"><polygon fill="#181818" points="49.9551,278.2266,39.9551,282.2266,49.9551,286.2266,45.9551,282.2266" style="stroke:#181818;stroke-width:1;"/><line style="stroke:#181818;stroke-width:1;stroke-dasharray:2,2;" x1="43.9551" x2="195.3574" y1="282.2266" y2="282.2266"/><text fill="#000000" font-family="sans-serif" font-size="13" lengthAdjust="spacing" textLength="47.7026" x="55.9551" y="277.1606">200 OK</text></g><line style="stroke:#000000;stroke-width:1;stroke-dasharray:2,2;" x1="10" x2="480.459" y1="291.2266" y2="291.2266"/><text fill="#000000" font-family="sans-serif" font-size="11" font-weight="bold" lengthAdjust="spacing" textLength="102.604" x="15" y="301.437">[User not found]</text><g class="message" data-participant-1="Service" data-participant-2="API"><polygon fill="#181818" points="207.3574,322.1641,197.3574,326.1641,207.3574,330.1641,203.3574,326.1641" style="stroke:#181818;stroke-width:1;"/><line style="stroke:#181818;stroke-width:1;stroke-dasharray:2,2;" x1="201.3574" x2="334.2183" y1="326.1641" y2="326.1641"/><text fill="#000000" font-family="sans-serif" font-size="13" lengthAdjust="spacing" textLength="31.9858" x="213.3574" y="321.0981">error</text></g><g class="message" data-participant-1="API" data-participant-2="User"><polygon fill="#181818" points="49.9551,351.2969,39.9551,355.2969,49.9551,359.2969,45.9551,355.2969" style="stroke:#181818;stroke-width:1;"/><line style="stroke:#181818;stroke-width:1;stroke-dasharray:2,2;" x1="43.9551" x2="195.3574" y1="355.2969" y2="355.2969"/><text fill="#000000" font-family="sans-serif" font-size="13" lengthAdjust="spacing" textLength="96.0146" x="55.9551" y="350.231">404 Not Found</text></g><!--SRC=[TO_B2i8m44NtynL3LxeGYhXo8LYA888AqWz8aoa4Ibhp4Frx9sbLb9fDmznpRgP2-ivYvSX2BwpNKlV2UCpY1BVdVOR2nUz4UY5xqv8ICTv12IzguGZB0Y1HYqtKSOrLpo5XY4DBrq3EGqmO66s6GeAYE8jLSu1NnbXPCD5eeuQI-e5Q0OZMf_sHxjfv1yZdLmgVjx_pztOkI4bkiDDMdAJMDIxp74y7e9P_AurCvx7fWb5_kiZQpaurhV8L7bdU9PcCUW80]--></g></svg>