<svg xmlns="http://www.w3.org/2000/svg" xmlns:xlink="http://www.w3.org/1999/xlink" contentStyleType="text/css" data-diagram-type="SEQUENCE" height="577px" preserveAspectRatio="none" style="width:886px;height:577px;background:#FFFFFF;" version="1.1" viewBox="0 0 886 577" width="886px" zoomAndPan="magnify"><defs/><g><rect fill="none" height="265" style="stroke:#000000;stroke-width:1.5;" width="869.7256" x="10" y="214.8281"/><g><title>Client</title><rect fill="#000000" fill-opacity="0.00000" height="415.5313" width="8" x="39.2651" y="81.2969"/><line style="stroke:#181818;stroke-width:0.5;stroke-dasharray:5,5;" x1="43" x2="43" y1="81.2969" y2="496.8281"/></g><g><title>UserController</title><rect fill="#000000" fill-opacity="0.00000" height="415.5313" width="8" x="228.5581" y="81.2969"/><line style="stroke:#181818;stroke-width:0.5;stroke-dasharray:5,5;" x1="232.0166" x2="232.0166" y1="81.2969" y2="496.8281"/></g><g><title>UserCommandHandler</title><rect fill="#000000" fill-opacity="0.00000" height="415.5313" width="8" x="423.8877" y="81.2969"/><line style="stroke:#181818;stroke-width:0.5;stroke-dasharray:5,5;" x1="427.3926" x2="427.3926" y1="81.2969" y2="496.8281"/></g><g><title>UserCommandService</title><rect fill="#000000" fill-opacity="0.00000" height="415.5313" width="8" x="649.9399" y="81.2969"/><line style="stroke:#181818;stroke-width:0.5;stroke-dasharray:5,5;" x1="653.1367" x2="653.1367" y1="81.2969" y2="496.8281"/></g><g><title>UserRepository</title><rect fill="#000000" fill-opacity="0.00000" height="415.5313" width="8" x="805.2344" y="81.2969"/><line style="stroke:#181818;stroke-width:0.5;stroke-dasharray:5,5;" x1="808.7432" x2="808.7432" y1="81.2969" y2="496.8281"/></g><g class="participant participant-head" data-participant="Client"><text fill="#000000" font-family="sans-serif" font-size="14" lengthAdjust="spacing" textLength="40.5303" x="20" y="77.9951">Client</text><ellipse cx="43.2651" cy="13.5" fill="#E2E2F0" rx="8" ry="8" style="stroke:#181818;stroke-width:0.5;"/><path d="M43.2651,21.5 L43.2651,48.5 M30.2651,29.5 L56.2651,29.5 M43.2651,48.5 L30.2651,63.5 M43.2651,48.5 L56.2651,63.5" fill="none" style="stroke:#181818;stroke-width:0.5;"/></g><g class="participant participant-tail" data-participant="Client"><text fill="#000000" font-family="sans-serif" font-size="14" lengthAdjust="spacing" textLength="40.5303" x="20" y="508.8232">Client</text><ellipse cx="43.2651" cy="520.625" fill="#E2E2F0" rx="8" ry="8" style="stroke:#181818;stroke-width:0.5;"/><path d="M43.2651,528.625 L43.2651,555.625 M30.2651,536.625 L56.2651,536.625 M43.2651,555.625 L30.2651,570.625 M43.2651,555.625 L56.2651,570.625" fill="none" style="stroke:#181818;stroke-width:0.5;"/></g><g class="participant participant-head" data-participant="UserController"><rect fill="#E2E2F0" height="30.2969" rx="2.5" ry="2.5" style="stroke:#181818;stroke-width:0.5;" width="115.083" x="175.0166" y="50"/><text fill="#000000" font-family="sans-serif" font-size="14" lengthAdjust="spacing" textLength="101.083" x="182.0166" y="69.9951">UserController</text></g><g class="participant participant-tail" data-participant="UserController"><rect fill="#E2E2F0" height="30.2969" rx="2.5" ry="2.5" style="stroke:#181818;stroke-width:0.5;" width="115.083" x="175.0166" y="495.8281"/><text fill="#000000" font-family="sans-serif" font-size="14" lengthAdjust="spacing" textLength="101.083" x="182.0166" y="515.8232">UserController</text></g><g class="participant participant-head" data-participant="UserCommandHandler"><rect fill="#E2E2F0" height="30.2969" rx="2.5" ry="2.5" style="stroke:#181818;stroke-width:0.5;" width="172.9902" x="341.3926" y="50"/><text fill="#000000" font-family="sans-serif" font-size="14" lengthAdjust="spacing" textLength="158.9902" x="348.3926" y="69.9951">UserCommandHandler</text></g><g class="participant participant-tail" data-participant="UserCommandHandler"><rect fill="#E2E2F0" height="30.2969" rx="2.5" ry="2.5" style="stroke:#181818;stroke-width:0.5;" width="172.9902" x="341.3926" y="495.8281"/><text fill="#000000" font-family="sans-serif" font-size="14" lengthAdjust="spacing" textLength="158.9902" x="348.3926" y="515.8232">UserCommandHandler</text></g><g class="participant participant-head" data-participant="UserCommandService"><rect fill="#E2E2F0" height="30.2969" rx="2.5" ry="2.5" style="stroke:#181818;stroke-width:0.5;" width="169.6064" x="569.1367" y="50"/><text fill="#000000" font-family="sans-serif" font-size="14" lengthAdjust="spacing" textLength="155.6064" x="576.1367" y="69.9951">UserCommandService</text></g><g class="participant participant-tail" data-participant="UserCommandService"><rect fill="#E2E2F0" height="30.2969" rx="2.5" ry="2.5" style="stroke:#181818;stroke-width:0.5;" width="169.6064" x="569.1367" y="495.8281"/><text fill="#000000" font-family="sans-serif" font-size="14" lengthAdjust="spacing" textLength="155.6064" x="576.1367" y="515.8232">UserCommandService</text></g><g class="participant participant-head" data-participant="UserRepository"><rect fill="#E2E2F0" height="30.2969" rx="2.5" ry="2.5" style="stroke:#181818;stroke-width:0.5;" width="120.9824" x="748.7432" y="50"/><text fill="#000000" font-family="sans-serif" font-size="14" lengthAdjust="spacing" textLength="106.9824" x="755.7432" y="69.9951">UserRepository</text></g><g class="participant participant-tail" data-participant="UserRepository"><rect fill="#E2E2F0" height="30.2969" rx="2.5" ry="2.5" style="stroke:#181818;stroke-width:0.5;" width="120.9824" x="748.7432" y="495.8281"/><text fill="#000000" font-family="sans-serif" font-size="14" lengthAdjust="spacing" textLength="106.9824" x="755.7432" y="515.8232">UserRepository</text></g><g class="message" data-participant-1="Client" data-participant-2="UserController"><polygon fill="#181818" points="220.5581,108.4297,230.5581,112.4297,220.5581,116.4297,224.5581,112.4297" style="stroke:#181818;stroke-width:1;"/><line style="stroke:#181818;stroke-width:1;" x1="43.2651" x2="226.5581" y1="112.4297" y2="112.4297"/><text fill="#000000" font-family="sans-serif" font-size="13" lengthAdjust="spacing" textLength="165.293" x="50.2651" y="107.3638">POST /users (CreateUser)</text></g><g class="message" data-participant-1="UserController" data-participant-2="UserCommandHandler"><polygon fill="#181818" points="415.8877,137.5625,425.8877,141.5625,415.8877,145.5625,419.8877,141.5625" style="stroke:#181818;stroke-width:1;"/><line style="stroke:#181818;stroke-width:1;" x1="232.5581" x2="421.8877" y1="141.5625" y2="141.5625"/><text fill="#000000" font-family="sans-serif" font-size="13" lengthAdjust="spacing" textLength="125.6328" x="239.5581" y="136.4966">handle(createUser)</text></g><g class="message" data-participant-1="UserCommandHandler" data-participant-2="UserCommandService"><polygon fill="#181818" points="641.9399,166.6953,651.9399,170.6953,641.9399,174.6953,645.9399,170.6953" style="stroke:#181818;stroke-width:1;"/><line style="stroke:#181818;stroke-width:1;" x1="427.8877" x2="647.9399" y1="170.6953" y2="170.6953"/><text fill="#000000" font-family="sans-serif" font-size="13" lengthAdjust="spacing" textLength="122.8779" x="434.8877" y="165.6294">create(createUser)</text></g><g class="message" data-participant-1="UserCommandService" data-participant-2="UserRepository"><polygon fill="#181818" points="797.2344,195.8281,807.2344,199.8281,797.2344,203.8281,801.2344,199.8281" style="stroke:#181818;stroke-width:1;"/><line style="stroke:#181818;stroke-width:1;" x1="653.9399" x2="803.2344" y1="199.8281" y2="199.8281"/><text fill="#000000" font-family="sans-serif" font-size="13" lengthAdjust="spacing" textLength="106.666" x="660.9399" y="194.7622">existsByDni(dni)</text></g><path d="M10,214.8281 L74.4429,214.8281 L74.4429,221.9609 L64.4429,231.9609 L10,231.9609 L10,214.8281" fill="#EEEEEE" style="stroke:#000000;stroke-width:1.5;"/><rect fill="none" height="265" style="stroke:#000000;stroke-width:1.5;" width="869.7256" x="10" y="214.8281"/><text fill="#000000" font-family="sans-serif" font-size="13" font-weight="bold" lengthAdjust="spacing" textLength="19.4429" x="25" y="227.895">alt</text><text fill="#000000" font-family="sans-serif" font-size="11" font-weight="bold" lengthAdjust="spacing" textLength="130.1255" x="89.4429" y="227.0386">[User does not exist]</text><g class="message" data-participant-1="UserCommandService" data-participant-2="UserRepository"><polygon fill="#181818" points="797.2344,249.0938,807.2344,253.0938,797.2344,257.0938,801.2344,253.0938" style="stroke:#181818;stroke-width:1;"/><line style="stroke:#181818;stroke-width:1;" x1="653.9399" x2="803.2344" y1="253.0938" y2="253.0938"/><text fill="#000000" font-family="sans-serif" font-size="13" lengthAdjust="spacing" textLength="108.1577" x="660.9399" y="248.0278">save(UserEntity)</text></g><g class="message" data-participant-1="UserRepository" data-participant-2="UserCommandService"><polygon fill="#181818" points="664.9399,278.2266,654.9399,282.2266,664.9399,286.2266,660.9399,282.2266" style="stroke:#181818;stroke-width:1;"/><line style="stroke:#181818;stroke-width:1;stroke-dasharray:2,2;" x1="658.9399" x2="808.2344" y1="282.2266" y2="282.2266"/><text fill="#000000" font-family="sans-serif" font-size="13" lengthAdjust="spacing" textLength="67.5835" x="670.9399" y="277.1606">UserEntity</text></g><g class="message" data-participant-1="UserCommandService" data-participant-2="UserCommandHandler"><polygon fill="#181818" points="438.8877,307.3594,428.8877,311.3594,438.8877,315.3594,434.8877,311.3594" style="stroke:#181818;stroke-width:1;"/><line style="stroke:#181818;stroke-width:1;stroke-dasharray:2,2;" x1="432.8877" x2="652.9399" y1="311.3594" y2="311.3594"/><text fill="#000000" font-family="sans-serif" font-size="13" lengthAdjust="spacing" textLength="67.5835" x="444.8877" y="306.2935">UserEntity</text></g><g class="message" data-participant-1="UserCommandHandler" data-participant-2="UserController"><polygon fill="#181818" points="243.5581,336.4922,233.5581,340.4922,243.5581,344.4922,239.5581,340.4922" style="stroke:#181818;stroke-width:1;"/><line style="stroke:#181818;stroke-width:1;stroke-dasharray:2,2;" x1="237.5581" x2="426.8877" y1="340.4922" y2="340.4922"/><text fill="#000000" font-family="sans-serif" font-size="13" lengthAdjust="spacing" textLength="171.3296" x="249.5581" y="335.4263">UserSuccess&lt;UserEntity&gt;</text></g><g class="message" data-participant-1="UserController" data-participant-2="Client"><polygon fill="#181818" points="54.2651,365.625,44.2651,369.625,54.2651,373.625,50.2651,369.625" style="stroke:#181818;stroke-width:1;"/><line style="stroke:#181818;stroke-width:1;stroke-dasharray:2,2;" x1="48.2651" x2="231.5581" y1="369.625" y2="369.625"/><text fill="#000000" font-family="sans-serif" font-size="13" lengthAdjust="spacing" textLength="118.3076" x="60.2651" y="364.5591">HTTP 201 Created</text></g><line style="stroke:#000000;stroke-width:1;stroke-dasharray:2,2;" x1="10" x2="879.7256" y1="378.625" y2="378.625"/><text fill="#000000" font-family="sans-serif" font-size="11" font-weight="bold" lengthAdjust="spacing" textLength="129.3037" x="15" y="388.8354">[User already exists]</text><g class="message" data-participant-1="UserCommandService" data-participant-2="UserCommandHandler"><polygon fill="#181818" points="438.8877,409.5625,428.8877,413.5625,438.8877,417.5625,434.8877,413.5625" style="stroke:#181818;stroke-width:1;"/><line style="stroke:#181818;stroke-width:1;stroke-dasharray:2,2;" x1="432.8877" x2="652.9399" y1="413.5625" y2="413.5625"/><text fill="#000000" font-family="sans-serif" font-size="13" lengthAdjust="spacing" textLength="202.0522" x="444.8877" y="408.4966">throw UserCommandException</text></g><g class="message" data-participant-1="UserCommandHandler" data-participant-2="UserController"><polygon fill="#181818" points="243.5581,438.6953,233.5581,442.6953,243.5581,446.6953,239.5581,442.6953" style="stroke:#181818;stroke-width:1;"/><line style="stroke:#181818;stroke-width:1;stroke-dasharray:2,2;" x1="237.5581" x2="426.8877" y1="442.6953" y2="442.6953"/><text fill="#000000" font-family="sans-serif" font-size="13" lengthAdjust="spacing" textLength="152.1216" x="249.5581" y="437.6294">(propagates exception)</text></g><g class="message" data-participant-1="UserController" data-participant-2="Client"><polygon fill="#181818" points="54.2651,467.8281,44.2651,471.8281,54.2651,475.8281,50.2651,471.8281" style="stroke:#181818;stroke-width:1;"/><line style="stroke:#181818;stroke-width:1;stroke-dasharray:2,2;" x1="48.2651" x2="231.5581" y1="471.8281" y2="471.8281"/><text fill="#000000" font-family="sans-serif" font-size="13" lengthAdjust="spacing" textLength="149.2334" x="60.2651" y="466.7622">HTTP 400 Bad Request</text></g><!--SRC=[bPBFQiCm3CRlVWeTaqDPDtOgeuTcXTvMckm1Z2rMWsjxjjCrRpzb2VdJ9gCD18Bq_IHzKhY8raEc5Ph87FTH2UMuYV0Pq6VMH6-rHZ-HEfsuaJjw_qddwCzAu4twWCu6HPqhnfhUi5XVjOGLx3_o0fvA2WT8CeyyOgr9sPMoOuSp4N_y-qh43JdIZUbsPA8RR4Ip2M6BzvO8nOiACMogTwCIQHI1N3VEGLeCO6niD0pekRDeu6TCwkZMH1Mhj6C7giMScPwRRJctnNcqs-3KyUf0NWg18Rpr9TQ36ltzY6z_WnNiYc8FByjdQ0uk6KCTi5aUrnIJLRlVXvt4exS_mzJs8j15PSr3pXBdhUDVD5oWITeAwNt6NfTBs7091_mkaUwFHlu2]--></g></svg>