<svg xmlns="http://www.w3.org/2000/svg" xmlns:xlink="http://www.w3.org/1999/xlink" contentStyleType="text/css" data-diagram-type="SEQUENCE" height="577px" preserveAspectRatio="none" style="width:878px;height:577px;background:#FFFFFF;" version="1.1" viewBox="0 0 878 577" width="878px" zoomAndPan="magnify"><defs/><g><rect fill="none" height="265" style="stroke:#000000;stroke-width:1.5;" width="861.4419" x="10" y="214.8281"/><g><title>Client</title><rect fill="#000000" fill-opacity="0.00000" height="415.5313" width="8" x="39.2651" y="81.2969"/><line style="stroke:#181818;stroke-width:0.5;stroke-dasharray:5,5;" x1="43" x2="43" y1="81.2969" y2="496.8281"/></g><g><title>UserController</title><rect fill="#000000" fill-opacity="0.00000" height="415.5313" width="8" x="243.3608" y="81.2969"/><line style="stroke:#181818;stroke-width:0.5;stroke-dasharray:5,5;" x1="246.8193" x2="246.8193" y1="81.2969" y2="496.8281"/></g><g><title>UserCommandHandler</title><rect fill="#000000" fill-opacity="0.00000" height="415.5313" width="8" x="419.4824" y="81.2969"/><line style="stroke:#181818;stroke-width:0.5;stroke-dasharray:5,5;" x1="422.9873" x2="422.9873" y1="81.2969" y2="496.8281"/></g><g><title>UserCommandService</title><rect fill="#000000" fill-opacity="0.00000" height="415.5313" width="8" x="641.6563" y="81.2969"/><line style="stroke:#181818;stroke-width:0.5;stroke-dasharray:5,5;" x1="644.853" x2="644.853" y1="81.2969" y2="496.8281"/></g><g><title>UserRepository</title><rect fill="#000000" fill-opacity="0.00000" height="415.5313" width="8" x="796.9507" y="81.2969"/><line style="stroke:#181818;stroke-width:0.5;stroke-dasharray:5,5;" x1="800.4595" x2="800.4595" y1="81.2969" y2="496.8281"/></g><g class="participant participant-head" data-participant="Client"><text fill="#000000" font-family="sans-serif" font-size="14" lengthAdjust="spacing" textLength="40.5303" x="20" y="77.9951">Client</text><ellipse cx="43.2651" cy="13.5" fill="#E2E2F0" rx="8" ry="8" style="stroke:#181818;stroke-width:0.5;"/><path d="M43.2651,21.5 L43.2651,48.5 M30.2651,29.5 L56.2651,29.5 M43.2651,48.5 L30.2651,63.5 M43.2651,48.5 L56.2651,63.5" fill="none" style="stroke:#181818;stroke-width:0.5;"/></g><g class="participant participant-tail" data-participant="Client"><text fill="#000000" font-family="sans-serif" font-size="14" lengthAdjust="spacing" textLength="40.5303" x="20" y="508.8232">Client</text><ellipse cx="43.2651" cy="520.625" fill="#E2E2F0" rx="8" ry="8" style="stroke:#181818;stroke-width:0.5;"/><path d="M43.2651,528.625 L43.2651,555.625 M30.2651,536.625 L56.2651,536.625 M43.2651,555.625 L30.2651,570.625 M43.2651,555.625 L56.2651,570.625" fill="none" style="stroke:#181818;stroke-width:0.5;"/></g><g class="participant participant-head" data-participant="UserController"><rect fill="#E2E2F0" height="30.2969" rx="2.5" ry="2.5" style="stroke:#181818;stroke-width:0.5;" width="115.083" x="189.8193" y="50"/><text fill="#000000" font-family="sans-serif" font-size="14" lengthAdjust="spacing" textLength="101.083" x="196.8193" y="69.9951">UserController</text></g><g class="participant participant-tail" data-participant="UserController"><rect fill="#E2E2F0" height="30.2969" rx="2.5" ry="2.5" style="stroke:#181818;stroke-width:0.5;" width="115.083" x="189.8193" y="495.8281"/><text fill="#000000" font-family="sans-serif" font-size="14" lengthAdjust="spacing" textLength="101.083" x="196.8193" y="515.8232">UserController</text></g><g class="participant participant-head" data-participant="UserCommandHandler"><rect fill="#E2E2F0" height="30.2969" rx="2.5" ry="2.5" style="stroke:#181818;stroke-width:0.5;" width="172.9902" x="336.9873" y="50"/><text fill="#000000" font-family="sans-serif" font-size="14" lengthAdjust="spacing" textLength="158.9902" x="343.9873" y="69.9951">UserCommandHandler</text></g><g class="participant participant-tail" data-participant="UserCommandHandler"><rect fill="#E2E2F0" height="30.2969" rx="2.5" ry="2.5" style="stroke:#181818;stroke-width:0.5;" width="172.9902" x="336.9873" y="495.8281"/><text fill="#000000" font-family="sans-serif" font-size="14" lengthAdjust="spacing" textLength="158.9902" x="343.9873" y="515.8232">UserCommandHandler</text></g><g class="participant participant-head" data-participant="UserCommandService"><rect fill="#E2E2F0" height="30.2969" rx="2.5" ry="2.5" style="stroke:#181818;stroke-width:0.5;" width="169.6064" x="560.853" y="50"/><text fill="#000000" font-family="sans-serif" font-size="14" lengthAdjust="spacing" textLength="155.6064" x="567.853" y="69.9951">UserCommandService</text></g><g class="participant participant-tail" data-participant="UserCommandService"><rect fill="#E2E2F0" height="30.2969" rx="2.5" ry="2.5" style="stroke:#181818;stroke-width:0.5;" width="169.6064" x="560.853" y="495.8281"/><text fill="#000000" font-family="sans-serif" font-size="14" lengthAdjust="spacing" textLength="155.6064" x="567.853" y="515.8232">UserCommandService</text></g><g class="participant participant-head" data-participant="UserRepository"><rect fill="#E2E2F0" height="30.2969" rx="2.5" ry="2.5" style="stroke:#181818;stroke-width:0.5;" width="120.9824" x="740.4595" y="50"/><text fill="#000000" font-family="sans-serif" font-size="14" lengthAdjust="spacing" textLength="106.9824" x="747.4595" y="69.9951">UserRepository</text></g><g class="participant participant-tail" data-participant="UserRepository"><rect fill="#E2E2F0" height="30.2969" rx="2.5" ry="2.5" style="stroke:#181818;stroke-width:0.5;" width="120.9824" x="740.4595" y="495.8281"/><text fill="#000000" font-family="sans-serif" font-size="14" lengthAdjust="spacing" textLength="106.9824" x="747.4595" y="515.8232">UserRepository</text></g><g class="message" data-participant-1="Client" data-participant-2="UserController"><polygon fill="#181818" points="235.3608,108.4297,245.3608,112.4297,235.3608,116.4297,239.3608,112.4297" style="stroke:#181818;stroke-width:1;"/><line style="stroke:#181818;stroke-width:1;" x1="43.2651" x2="241.3608" y1="112.4297" y2="112.4297"/><text fill="#000000" font-family="sans-serif" font-size="13" lengthAdjust="spacing" textLength="180.0957" x="50.2651" y="107.3638">DELETE /users (DeleteUser)</text></g><g class="message" data-participant-1="UserController" data-participant-2="UserCommandHandler"><polygon fill="#181818" points="411.4824,137.5625,421.4824,141.5625,411.4824,145.5625,415.4824,141.5625" style="stroke:#181818;stroke-width:1;"/><line style="stroke:#181818;stroke-width:1;" x1="247.3608" x2="417.4824" y1="141.5625" y2="141.5625"/><text fill="#000000" font-family="sans-serif" font-size="13" lengthAdjust="spacing" textLength="125.0361" x="254.3608" y="136.4966">handle(deleteUser)</text></g><g class="message" data-participant-1="UserCommandHandler" data-participant-2="UserCommandService"><polygon fill="#181818" points="633.6563,166.6953,643.6563,170.6953,633.6563,174.6953,637.6563,170.6953" style="stroke:#181818;stroke-width:1;"/><line style="stroke:#181818;stroke-width:1;" x1="423.4824" x2="639.6563" y1="170.6953" y2="170.6953"/><text fill="#000000" font-family="sans-serif" font-size="13" lengthAdjust="spacing" textLength="121.6846" x="430.4824" y="165.6294">delete(deleteUser)</text></g><g class="message" data-participant-1="UserCommandService" data-participant-2="UserRepository"><polygon fill="#181818" points="788.9507,195.8281,798.9507,199.8281,788.9507,203.8281,792.9507,199.8281" style="stroke:#181818;stroke-width:1;"/><line style="stroke:#181818;stroke-width:1;" x1="645.6563" x2="794.9507" y1="199.8281" y2="199.8281"/><text fill="#000000" font-family="sans-serif" font-size="13" lengthAdjust="spacing" textLength="105.1299" x="652.6563" y="194.7622">existsById(uuid)</text></g><path d="M10,214.8281 L74.4429,214.8281 L74.4429,221.9609 L64.4429,231.9609 L10,231.9609 L10,214.8281" fill="#EEEEEE" style="stroke:#000000;stroke-width:1.5;"/><rect fill="none" height="265" style="stroke:#000000;stroke-width:1.5;" width="861.4419" x="10" y="214.8281"/><text fill="#000000" font-family="sans-serif" font-size="13" font-weight="bold" lengthAdjust="spacing" textLength="19.4429" x="25" y="227.895">alt</text><text fill="#000000" font-family="sans-serif" font-size="11" font-weight="bold" lengthAdjust="spacing" textLength="78.9282" x="89.4429" y="227.0386">[User exists]</text><g class="message" data-participant-1="UserCommandService" data-participant-2="UserRepository"><polygon fill="#181818" points="788.9507,249.0938,798.9507,253.0938,788.9507,257.0938,792.9507,253.0938" style="stroke:#181818;stroke-width:1;"/><line style="stroke:#181818;stroke-width:1;" x1="645.6563" x2="794.9507" y1="253.0938" y2="253.0938"/><text fill="#000000" font-family="sans-serif" font-size="13" lengthAdjust="spacing" textLength="108.1387" x="652.6563" y="248.0278">deleteById(uuid)</text></g><g class="message" data-participant-1="UserRepository" data-participant-2="UserCommandService"><polygon fill="#181818" points="656.6563,278.2266,646.6563,282.2266,656.6563,286.2266,652.6563,282.2266" style="stroke:#181818;stroke-width:1;"/><line style="stroke:#181818;stroke-width:1;stroke-dasharray:2,2;" x1="650.6563" x2="799.9507" y1="282.2266" y2="282.2266"/><text fill="#000000" font-family="sans-serif" font-size="13" lengthAdjust="spacing" textLength="28.7104" x="662.6563" y="277.1606">Void</text></g><g class="message" data-participant-1="UserCommandService" data-participant-2="UserCommandHandler"><polygon fill="#181818" points="434.4824,307.3594,424.4824,311.3594,434.4824,315.3594,430.4824,311.3594" style="stroke:#181818;stroke-width:1;"/><line style="stroke:#181818;stroke-width:1;stroke-dasharray:2,2;" x1="428.4824" x2="644.6563" y1="311.3594" y2="311.3594"/><text fill="#000000" font-family="sans-serif" font-size="13" lengthAdjust="spacing" textLength="28.7104" x="440.4824" y="306.2935">Void</text></g><g class="message" data-participant-1="UserCommandHandler" data-participant-2="UserController"><polygon fill="#181818" points="258.3608,336.4922,248.3608,340.4922,258.3608,344.4922,254.3608,340.4922" style="stroke:#181818;stroke-width:1;"/><line style="stroke:#181818;stroke-width:1;stroke-dasharray:2,2;" x1="252.3608" x2="422.4824" y1="340.4922" y2="340.4922"/><text fill="#000000" font-family="sans-serif" font-size="13" lengthAdjust="spacing" textLength="28.7104" x="264.3608" y="335.4263">Void</text></g><g class="message" data-participant-1="UserController" data-participant-2="Client"><polygon fill="#181818" points="54.2651,365.625,44.2651,369.625,54.2651,373.625,50.2651,369.625" style="stroke:#181818;stroke-width:1;"/><line style="stroke:#181818;stroke-width:1;stroke-dasharray:2,2;" x1="48.2651" x2="246.3608" y1="369.625" y2="369.625"/><text fill="#000000" font-family="sans-serif" font-size="13" lengthAdjust="spacing" textLength="140.0864" x="60.2651" y="364.5591">HTTP 204 No Content</text></g><line style="stroke:#000000;stroke-width:1;stroke-dasharray:2,2;" x1="10" x2="871.4419" y1="378.625" y2="378.625"/><text fill="#000000" font-family="sans-serif" font-size="11" font-weight="bold" lengthAdjust="spacing" textLength="130.1255" x="15" y="388.8354">[User does not exist]</text><g class="message" data-participant-1="UserCommandService" data-participant-2="UserCommandHandler"><polygon fill="#181818" points="434.4824,409.5625,424.4824,413.5625,434.4824,417.5625,430.4824,413.5625" style="stroke:#181818;stroke-width:1;"/><line style="stroke:#181818;stroke-width:1;stroke-dasharray:2,2;" x1="428.4824" x2="644.6563" y1="413.5625" y2="413.5625"/><text fill="#000000" font-family="sans-serif" font-size="13" lengthAdjust="spacing" textLength="198.1738" x="440.4824" y="408.4966">throw UserNotFoundException</text></g><g class="message" data-participant-1="UserCommandHandler" data-participant-2="UserController"><polygon fill="#181818" points="258.3608,438.6953,248.3608,442.6953,258.3608,446.6953,254.3608,442.6953" style="stroke:#181818;stroke-width:1;"/><line style="stroke:#181818;stroke-width:1;stroke-dasharray:2,2;" x1="252.3608" x2="422.4824" y1="442.6953" y2="442.6953"/><text fill="#000000" font-family="sans-serif" font-size="13" lengthAdjust="spacing" textLength="152.1216" x="264.3608" y="437.6294">(propagates exception)</text></g><g class="message" data-participant-1="UserController" data-participant-2="Client"><polygon fill="#181818" points="54.2651,467.8281,44.2651,471.8281,54.2651,475.8281,50.2651,471.8281" style="stroke:#181818;stroke-width:1;"/><line style="stroke:#181818;stroke-width:1;stroke-dasharray:2,2;" x1="48.2651" x2="246.3608" y1="471.8281" y2="471.8281"/><text fill="#000000" font-family="sans-serif" font-size="13" lengthAdjust="spacing" textLength="133.6436" x="60.2651" y="466.7622">HTTP 404 Not Found</text></g><!--SRC=[bP91QyCm38Nl_XKwfeUoCNhgOOUr6HsCChPiTnEBrU1QnbQszj_FYTCsITFH1WA1zpv9JueicJmiZ4RBmadFkjHEMeRFW7v1bZqPWtv4scwbLQlu_YD_eF_H9Px9x-WewDXvBqJg3TF7GKkOmp9_pOiSxgee1CYMQ92nTat4m7kakrF52flcArDdPC_NfzkX8vsm7Yr6Z2r-2XLHtEd0uMd_ehAgqYg2qgJihIGWFbSMImDqYXtOZcjwASGNQNMnsQMzZK77ROsTQW2S3XFDxONdi2gADtYudy6QeFRK_vn04p0jHX46iCHfGpVFp1jFlusq9dwcogfyLw9ZJVQcA9dpvEItv3WD7YfChWitQy8nDEq5MlK7]--></g></svg>