<svg xmlns="http://www.w3.org/2000/svg" xmlns:xlink="http://www.w3.org/1999/xlink" contentStyleType="text/css" data-diagram-type="SEQUENCE" height="577px" preserveAspectRatio="none" style="width:877px;height:577px;background:#FFFFFF;" version="1.1" viewBox="0 0 877 577" width="877px" zoomAndPan="magnify"><defs/><g><rect fill="none" height="265" style="stroke:#000000;stroke-width:1.5;" width="860.4771" x="10" y="214.8281"/><g><title>Client</title><rect fill="#000000" fill-opacity="0.00000" height="415.5313" width="8" x="39.2651" y="81.2969"/><line style="stroke:#181818;stroke-width:0.5;stroke-dasharray:5,5;" x1="43" x2="43" y1="81.2969" y2="496.8281"/></g><g><title>UserController</title><rect fill="#000000" fill-opacity="0.00000" height="415.5313" width="8" x="223.188" y="81.2969"/><line style="stroke:#181818;stroke-width:0.5;stroke-dasharray:5,5;" x1="226.6465" x2="226.6465" y1="81.2969" y2="496.8281"/></g><g><title>UserCommandHandler</title><rect fill="#000000" fill-opacity="0.00000" height="415.5313" width="8" x="418.5176" y="81.2969"/><line style="stroke:#181818;stroke-width:0.5;stroke-dasharray:5,5;" x1="422.0225" x2="422.0225" y1="81.2969" y2="496.8281"/></g><g><title>UserCommandService</title><rect fill="#000000" fill-opacity="0.00000" height="415.5313" width="8" x="640.6914" y="81.2969"/><line style="stroke:#181818;stroke-width:0.5;stroke-dasharray:5,5;" x1="643.8882" x2="643.8882" y1="81.2969" y2="496.8281"/></g><g><title>UserRepository</title><rect fill="#000000" fill-opacity="0.00000" height="415.5313" width="8" x="795.9858" y="81.2969"/><line style="stroke:#181818;stroke-width:0.5;stroke-dasharray:5,5;" x1="799.4946" x2="799.4946" y1="81.2969" y2="496.8281"/></g><g class="participant participant-head" data-participant="Client"><text fill="#000000" font-family="sans-serif" font-size="14" lengthAdjust="spacing" textLength="40.5303" x="20" y="77.9951">Client</text><ellipse cx="43.2651" cy="13.5" fill="#E2E2F0" rx="8" ry="8" style="stroke:#181818;stroke-width:0.5;"/><path d="M43.2651,21.5 L43.2651,48.5 M30.2651,29.5 L56.2651,29.5 M43.2651,48.5 L30.2651,63.5 M43.2651,48.5 L56.2651,63.5" fill="none" style="stroke:#181818;stroke-width:0.5;"/></g><g class="participant participant-tail" data-participant="Client"><text fill="#000000" font-family="sans-serif" font-size="14" lengthAdjust="spacing" textLength="40.5303" x="20" y="508.8232">Client</text><ellipse cx="43.2651" cy="520.625" fill="#E2E2F0" rx="8" ry="8" style="stroke:#181818;stroke-width:0.5;"/><path d="M43.2651,528.625 L43.2651,555.625 M30.2651,536.625 L56.2651,536.625 M43.2651,555.625 L30.2651,570.625 M43.2651,555.625 L56.2651,570.625" fill="none" style="stroke:#181818;stroke-width:0.5;"/></g><g class="participant participant-head" data-participant="UserController"><rect fill="#E2E2F0" height="30.2969" rx="2.5" ry="2.5" style="stroke:#181818;stroke-width:0.5;" width="115.083" x="169.6465" y="50"/><text fill="#000000" font-family="sans-serif" font-size="14" lengthAdjust="spacing" textLength="101.083" x="176.6465" y="69.9951">UserController</text></g><g class="participant participant-tail" data-participant="UserController"><rect fill="#E2E2F0" height="30.2969" rx="2.5" ry="2.5" style="stroke:#181818;stroke-width:0.5;" width="115.083" x="169.6465" y="495.8281"/><text fill="#000000" font-family="sans-serif" font-size="14" lengthAdjust="spacing" textLength="101.083" x="176.6465" y="515.8232">UserController</text></g><g class="participant participant-head" data-participant="UserCommandHandler"><rect fill="#E2E2F0" height="30.2969" rx="2.5" ry="2.5" style="stroke:#181818;stroke-width:0.5;" width="172.9902" x="336.0225" y="50"/><text fill="#000000" font-family="sans-serif" font-size="14" lengthAdjust="spacing" textLength="158.9902" x="343.0225" y="69.9951">UserCommandHandler</text></g><g class="participant participant-tail" data-participant="UserCommandHandler"><rect fill="#E2E2F0" height="30.2969" rx="2.5" ry="2.5" style="stroke:#181818;stroke-width:0.5;" width="172.9902" x="336.0225" y="495.8281"/><text fill="#000000" font-family="sans-serif" font-size="14" lengthAdjust="spacing" textLength="158.9902" x="343.0225" y="515.8232">UserCommandHandler</text></g><g class="participant participant-head" data-participant="UserCommandService"><rect fill="#E2E2F0" height="30.2969" rx="2.5" ry="2.5" style="stroke:#181818;stroke-width:0.5;" width="169.6064" x="559.8882" y="50"/><text fill="#000000" font-family="sans-serif" font-size="14" lengthAdjust="spacing" textLength="155.6064" x="566.8882" y="69.9951">UserCommandService</text></g><g class="participant participant-tail" data-participant="UserCommandService"><rect fill="#E2E2F0" height="30.2969" rx="2.5" ry="2.5" style="stroke:#181818;stroke-width:0.5;" width="169.6064" x="559.8882" y="495.8281"/><text fill="#000000" font-family="sans-serif" font-size="14" lengthAdjust="spacing" textLength="155.6064" x="566.8882" y="515.8232">UserCommandService</text></g><g class="participant participant-head" data-participant="UserRepository"><rect fill="#E2E2F0" height="30.2969" rx="2.5" ry="2.5" style="stroke:#181818;stroke-width:0.5;" width="120.9824" x="739.4946" y="50"/><text fill="#000000" font-family="sans-serif" font-size="14" lengthAdjust="spacing" textLength="106.9824" x="746.4946" y="69.9951">UserRepository</text></g><g class="participant participant-tail" data-participant="UserRepository"><rect fill="#E2E2F0" height="30.2969" rx="2.5" ry="2.5" style="stroke:#181818;stroke-width:0.5;" width="120.9824" x="739.4946" y="495.8281"/><text fill="#000000" font-family="sans-serif" font-size="14" lengthAdjust="spacing" textLength="106.9824" x="746.4946" y="515.8232">UserRepository</text></g><g class="message" data-participant-1="Client" data-participant-2="UserController"><polygon fill="#181818" points="215.188,108.4297,225.188,112.4297,215.188,116.4297,219.188,112.4297" style="stroke:#181818;stroke-width:1;"/><line style="stroke:#181818;stroke-width:1;" x1="43.2651" x2="221.188" y1="112.4297" y2="112.4297"/><text fill="#000000" font-family="sans-serif" font-size="13" lengthAdjust="spacing" textLength="159.9229" x="50.2651" y="107.3638">PUT /users (UpdateUser)</text></g><g class="message" data-participant-1="UserController" data-participant-2="UserCommandHandler"><polygon fill="#181818" points="410.5176,137.5625,420.5176,141.5625,410.5176,145.5625,414.5176,141.5625" style="stroke:#181818;stroke-width:1;"/><line style="stroke:#181818;stroke-width:1;" x1="227.188" x2="416.5176" y1="141.5625" y2="141.5625"/><text fill="#000000" font-family="sans-serif" font-size="13" lengthAdjust="spacing" textLength="129.8857" x="234.188" y="136.4966">handle(updateUser)</text></g><g class="message" data-participant-1="UserCommandHandler" data-participant-2="UserCommandService"><polygon fill="#181818" points="632.6914,166.6953,642.6914,170.6953,632.6914,174.6953,636.6914,170.6953" style="stroke:#181818;stroke-width:1;"/><line style="stroke:#181818;stroke-width:1;" x1="422.5176" x2="638.6914" y1="170.6953" y2="170.6953"/><text fill="#000000" font-family="sans-serif" font-size="13" lengthAdjust="spacing" textLength="131.3838" x="429.5176" y="165.6294">update(updateUser)</text></g><g class="message" data-participant-1="UserCommandService" data-participant-2="UserRepository"><polygon fill="#181818" points="787.9858,195.8281,797.9858,199.8281,787.9858,203.8281,791.9858,199.8281" style="stroke:#181818;stroke-width:1;"/><line style="stroke:#181818;stroke-width:1;" x1="644.6914" x2="793.9858" y1="199.8281" y2="199.8281"/><text fill="#000000" font-family="sans-serif" font-size="13" lengthAdjust="spacing" textLength="75.3848" x="651.6914" y="194.7622">findById(id)</text></g><path d="M10,214.8281 L74.4429,214.8281 L74.4429,221.9609 L64.4429,231.9609 L10,231.9609 L10,214.8281" fill="#EEEEEE" style="stroke:#000000;stroke-width:1.5;"/><rect fill="none" height="265" style="stroke:#000000;stroke-width:1.5;" width="860.4771" x="10" y="214.8281"/><text fill="#000000" font-family="sans-serif" font-size="13" font-weight="bold" lengthAdjust="spacing" textLength="19.4429" x="25" y="227.895">alt</text><text fill="#000000" font-family="sans-serif" font-size="11" font-weight="bold" lengthAdjust="spacing" textLength="78.9282" x="89.4429" y="227.0386">[User exists]</text><g class="message" data-participant-1="UserCommandService" data-participant-2="UserRepository"><polygon fill="#181818" points="787.9858,249.0938,797.9858,253.0938,787.9858,257.0938,791.9858,253.0938" style="stroke:#181818;stroke-width:1;"/><line style="stroke:#181818;stroke-width:1;" x1="644.6914" x2="793.9858" y1="253.0938" y2="253.0938"/><text fill="#000000" font-family="sans-serif" font-size="13" lengthAdjust="spacing" textLength="108.1577" x="651.6914" y="248.0278">save(UserEntity)</text></g><g class="message" data-participant-1="UserRepository" data-participant-2="UserCommandService"><polygon fill="#181818" points="655.6914,278.2266,645.6914,282.2266,655.6914,286.2266,651.6914,282.2266" style="stroke:#181818;stroke-width:1;"/><line style="stroke:#181818;stroke-width:1;stroke-dasharray:2,2;" x1="649.6914" x2="798.9858" y1="282.2266" y2="282.2266"/><text fill="#000000" font-family="sans-serif" font-size="13" lengthAdjust="spacing" textLength="67.5835" x="661.6914" y="277.1606">UserEntity</text></g><g class="message" data-participant-1="UserCommandService" data-participant-2="UserCommandHandler"><polygon fill="#181818" points="433.5176,307.3594,423.5176,311.3594,433.5176,315.3594,429.5176,311.3594" style="stroke:#181818;stroke-width:1;"/><line style="stroke:#181818;stroke-width:1;stroke-dasharray:2,2;" x1="427.5176" x2="643.6914" y1="311.3594" y2="311.3594"/><text fill="#000000" font-family="sans-serif" font-size="13" lengthAdjust="spacing" textLength="67.5835" x="439.5176" y="306.2935">UserEntity</text></g><g class="message" data-participant-1="UserCommandHandler" data-participant-2="UserController"><polygon fill="#181818" points="238.188,336.4922,228.188,340.4922,238.188,344.4922,234.188,340.4922" style="stroke:#181818;stroke-width:1;"/><line style="stroke:#181818;stroke-width:1;stroke-dasharray:2,2;" x1="232.188" x2="421.5176" y1="340.4922" y2="340.4922"/><text fill="#000000" font-family="sans-serif" font-size="13" lengthAdjust="spacing" textLength="171.3296" x="244.188" y="335.4263">UserSuccess&lt;UserEntity&gt;</text></g><g class="message" data-participant-1="UserController" data-participant-2="Client"><polygon fill="#181818" points="54.2651,365.625,44.2651,369.625,54.2651,373.625,50.2651,369.625" style="stroke:#181818;stroke-width:1;"/><line style="stroke:#181818;stroke-width:1;stroke-dasharray:2,2;" x1="48.2651" x2="226.188" y1="369.625" y2="369.625"/><text fill="#000000" font-family="sans-serif" font-size="13" lengthAdjust="spacing" textLength="85.3315" x="60.2651" y="364.5591">HTTP 200 OK</text></g><line style="stroke:#000000;stroke-width:1;stroke-dasharray:2,2;" x1="10" x2="870.4771" y1="378.625" y2="378.625"/><text fill="#000000" font-family="sans-serif" font-size="11" font-weight="bold" lengthAdjust="spacing" textLength="102.604" x="15" y="388.8354">[User not found]</text><g class="message" data-participant-1="UserCommandService" data-participant-2="UserCommandHandler"><polygon fill="#181818" points="433.5176,409.5625,423.5176,413.5625,433.5176,417.5625,429.5176,413.5625" style="stroke:#181818;stroke-width:1;"/><line style="stroke:#181818;stroke-width:1;stroke-dasharray:2,2;" x1="427.5176" x2="643.6914" y1="413.5625" y2="413.5625"/><text fill="#000000" font-family="sans-serif" font-size="13" lengthAdjust="spacing" textLength="198.1738" x="439.5176" y="408.4966">throw UserNotFoundException</text></g><g class="message" data-participant-1="UserCommandHandler" data-participant-2="UserController"><polygon fill="#181818" points="238.188,438.6953,228.188,442.6953,238.188,446.6953,234.188,442.6953" style="stroke:#181818;stroke-width:1;"/><line style="stroke:#181818;stroke-width:1;stroke-dasharray:2,2;" x1="232.188" x2="421.5176" y1="442.6953" y2="442.6953"/><text fill="#000000" font-family="sans-serif" font-size="13" lengthAdjust="spacing" textLength="152.1216" x="244.188" y="437.6294">(propagates exception)</text></g><g class="message" data-participant-1="UserController" data-participant-2="Client"><polygon fill="#181818" points="54.2651,467.8281,44.2651,471.8281,54.2651,475.8281,50.2651,471.8281" style="stroke:#181818;stroke-width:1;"/><line style="stroke:#181818;stroke-width:1;stroke-dasharray:2,2;" x1="48.2651" x2="226.188" y1="471.8281" y2="471.8281"/><text fill="#000000" font-family="sans-serif" font-size="13" lengthAdjust="spacing" textLength="133.6436" x="60.2651" y="466.7622">HTTP 404 Not Found</text></g><!--SRC=[bP7BQiCm44Nt-efPselGKB8A9Ok6b9H26nhx0uGqQGIE9AHn6lzzvGT-97P9308pC-VUUN11ni4wKwY9MUv82MMv9aWzkhNHv4oMeHj9dKvSosru_wJtwCvAu4tw6wtnAZWNZDNUC5jTMS8ITca2Jtc8UeXIApbXMHApgy8MxRSKy6Fr5-KtvA1kI3ST1xh61ZGRAMpmRgA07fIMhyMxZ9GC4C_geG4lofDd4BuxXJm_OrH6DveK5N7BzgfcKmDqtAJbrEQcqNPhO_Sg0_jS2FJ-fPDOzJIwcmM-kVmIjacoW-Vv7Bu-66OUwtLfGt0mkPOFjqz7PtwhrAUXjr9YSn5eIHdzq3oHTSRodt1_7uxNACJtZREOBo2uGsNFKCi_]--></g></svg>